PathFileType	4	(X/Y/Z)	E:\3-PhD\Data\MocapData\ElaboratedData\009\pre\dynamicElaborations\Run_baseline3\Run_baseline3.trc
DataRate	CameraRate	NumFrames	NumMarkers	Units	OrigDataRate	DataStartFrame
200	200	4	54	mm	200	687
Frame#	Time	FHD			LBHD			RBHD			C7			T10			CLAV			LSHO			LUUPA			LMUPA			LDUPA			LLEP			LMEP			LRAD			LUL			LRFIN			RSHO			RUPA1			RMUPA			RDUPA			RLEP			RMEP			RRAD			RUL			RUFIN			RASI			USACR			LSACR			RSACR			LTHI1			LTHI2			LTHI3			LTHI4			LTIB1			LTIB2			LTIB3			LTIB4			LLMAL			LHEE			LMT1			LMT2			RTHI			RTHI2			RTHI3			RTHI4			RLFC			RTIB1			RTIB2			RTIB3			RTIB4			RLMAL			RHEE			RMT1			RMT2			RMT5		
		X1	Y1	Z1	X2	Y2	Z2	X3	Y3	Z3	X4	Y4	Z4	X5	Y5	Z5	X6	Y6	Z6	X7	Y7	Z7	X8	Y8	Z8	X9	Y9	Z9	X10	Y10	Z10	X11	Y11	Z11	X12	Y12	Z12	X13	Y13	Z13	X14	Y14	Z14	X15	Y15	Z15	X16	Y16	Z16	X17	Y17	Z17	X18	Y18	Z18	X19	Y19	Z19	X20	Y20	Z20	X21	Y21	Z21	X22	Y22	Z22	X23	Y23	Z23	X24	Y24	Z24	X25	Y25	Z25	X26	Y26	Z26	X27	Y27	Z27	X28	Y28	Z28	X29	Y29	Z29	X30	Y30	Z30	X31	Y31	Z31	X32	Y32	Z32	X33	Y33	Z33	X34	Y34	Z34	X35	Y35	Z35	X36	Y36	Z36	X37	Y37	Z37	X38	Y38	Z38	X39	Y39	Z39	X40	Y40	Z40	X41	Y41	Z41	X42	Y42	Z42	X43	Y43	Z43	X44	Y44	Z44	X45	Y45	Z45	X46	Y46	Z46	X47	Y47	Z47	X48	Y48	Z48	X49	Y49	Z49	X50	Y50	Z50	X51	Y51	Z51	X52	Y52	Z52	X53	Y53	Z53	X54	Y54	Z54	

715	3.570000	-288.152775	1354.028929	797.738521	-387.142000	1373.661946	629.807227	-425.499140	1350.743470	748.952740	-475.945862	1260.099516	671.388023	-723.638835	1018.507626	607.766761	-411.173387	1111.271262	664.555383	-375.979289	1211.292174	567.731777	-294.238924	1105.268436	438.944197	-256.031170	1094.683296	468.041668	-246.308209	1058.079789	421.027557	-166.477900	966.753400	394.077067	-191.249386	908.759098	440.284874	-40.425662	1042.742205	603.157080	18.537821	1009.819411	572.244174	-7.100235	1104.330498	603.657325	-448.910672	1137.432269	834.626860	-616.997262	1056.001804	876.278350	-625.971050	1016.806777	851.704435	-679.822960	1027.589941	875.373962	-808.688682	976.239095	850.138474	-821.184178	1012.068530	788.052102	-807.116190	742.859919	725.922567	-875.269562	751.494779	740.974252	-812.976556	673.611833	759.413112	-616.472058	778.324630	650.476290	-773.846058	918.693651	576.072927	-777.200809	901.104926	538.451180	-784.478842	878.596915	591.935043	-619.958847	689.648236	266.585329	-580.101196	619.714029	239.045751	-535.944385	617.710970	255.298243	-604.513928	566.693004	220.527796	-624.809841	283.621038	136.970773	-685.619696	305.022170	78.931296	-663.258082	271.848929	97.271958	-715.141223	203.007718	95.840081	-840.249021	133.189289	22.704321	-936.469882	107.474628	34.127664	-728.220801	49.409581	84.131773	-718.147018	55.835109	37.091410	-580.027535	598.615753	721.354284	-521.641676	598.079035	749.570766	-504.917063	628.020428	757.704255	-459.031119	540.276880	733.521161	-359.637080	498.828163	730.585694	-221.670968	355.451385	634.492522	-268.401749	275.242123	581.607504	-222.186470	281.905599	592.809104	-182.101660	266.284123	556.318373	-209.211284	174.185431	495.564890	-211.635364	161.685648	398.557898	-46.105938	183.041552	551.641566	-70.984918	161.610192	573.917753	-124.020645	112.983028	571.267968	
716	3.575000	-266.974868	1358.605189	812.963191	-365.671747	1378.236344	644.902472	-404.072020	1355.316910	763.943964	-454.097300	1263.778939	685.104756	-699.267626	1021.222396	616.046289	-388.171466	1115.440826	678.317619	-352.701475	1215.774162	581.063993	-272.434583	1110.670833	449.159815	-234.216444	1098.791571	477.328321	-225.509277	1063.308069	429.515159	-148.084949	971.403157	398.899501	-173.601099	912.474840	443.407240	-19.780051	1038.955010	609.437448	38.400905	1005.741658	577.450827	14.620884	1099.888072	611.301966	-428.788800	1140.596210	848.197794	-597.849990	1060.619181	887.448546	-606.760392	1021.345808	862.901367	-661.001244	1032.764572	885.615572	-789.899435	981.816553	858.283218	-800.686631	1017.818612	795.510297	-782.804616	749.141802	731.511003	-851.376558	757.160751	745.057094	-788.838771	679.466823	764.005789	-592.700345	781.323915	658.013678	-748.780336	922.215885	582.801235	-751.597008	904.889488	545.002886	-759.465100	882.049848	598.261850	-600.260380	693.505462	273.890969	-563.680764	621.949233	246.031639	-519.856726	617.929687	262.424106	-590.466018	570.296715	226.926789	-619.793587	287.245874	141.303605	-679.993549	309.653266	82.922609	-658.060509	276.171636	101.132661	-710.357144	207.667817	98.786536	-835.766181	139.451433	24.215896	-932.125107	116.973505	35.278790	-727.353348	48.505223	84.165080	-717.352505	55.869235	37.473423	-557.573506	599.401542	727.639724	-499.168475	598.007052	755.781432	-482.060268	627.717255	763.981499	-437.213930	539.554212	739.248816	-337.944809	496.998993	736.516685	-194.594968	354.263320	645.454733	-238.183169	272.224071	592.892403	-192.378699	279.939614	604.778593	-150.946512	264.716040	569.572490	-174.454788	171.145455	509.447695	-174.568858	157.787249	412.491958	-12.233704	183.082583	568.511303	-37.201994	161.274269	590.427534	-89.840279	112.039651	587.928701	
717	3.580000	-245.934255	1363.305193	828.421273	-344.479978	1382.970645	660.309673	-382.794123	1359.952678	779.263208	-432.300988	1267.591356	698.929816	-674.792806	1024.002300	624.372527	-365.237355	1119.822688	692.278445	-329.593021	1220.193751	594.105005	-250.797726	1115.966881	459.430162	-212.563294	1102.692334	486.378754	-205.089699	1068.391374	437.857780	-130.505374	975.809712	403.359735	-156.897343	916.058029	446.082434	0.262595	1034.369297	615.007625	57.559186	1000.801511	581.845797	35.886636	1094.512882	618.249908	-408.880259	1143.968211	861.842872	-578.745356	1065.290608	898.675377	-587.580885	1025.959842	874.119945	-642.180320	1037.945635	895.918154	-770.976531	987.281487	866.531084	-780.093908	1023.349095	803.088280	-758.033003	755.135961	737.919076	-827.009305	762.475781	749.847886	-764.188348	685.068030	769.518080	-568.871792	784.358720	665.918954	-723.537189	925.832035	589.611430	-725.774658	908.744616	551.649218	-734.302450	885.591219	604.642636	-579.757708	697.678400	281.765281	-546.491471	624.593276	253.820214	-503.185373	618.529243	270.571186	-575.557326	574.450818	233.979033	-614.151365	291.690922	146.386544	-673.631443	315.102117	87.516079	-652.123296	281.327934	105.611696	-704.736683	213.111376	102.160119	-830.233637	146.328452	25.990815	-926.586634	127.422230	36.719551	-726.436010	47.523570	84.231271	-716.380473	55.925788	37.942369	-534.854487	599.845762	733.873562	-476.479623	597.490843	761.999739	-458.995195	626.941430	770.406195	-415.155970	538.484232	744.892693	-316.136385	494.929375	742.621186	-168.200770	352.901180	656.132839	-209.070637	269.175497	604.064745	-163.639203	277.843340	616.427251	-121.081651	262.966404	582.355857	-141.508460	168.112520	523.055072	-139.740443	153.994852	426.185654	20.043054	182.581670	584.342111	-4.945522	160.438815	605.998599	-57.277116	110.724271	603.789414	
718	3.585000	-225.036052	1368.076636	844.050372	-323.515749	1387.785531	675.929696	-361.654526	1364.584095	794.799506	-410.513783	1271.484324	712.788265	-650.209879	1026.825171	632.741353	-342.365570	1124.350626	706.408177	-306.712338	1224.465003	606.702601	-229.338521	1121.100875	469.754406	-191.120886	1106.363533	495.298116	-185.044269	1073.300141	446.087994	-113.664873	980.022844	407.544218	-141.063138	919.568455	448.413994	19.726036	1029.043169	619.926408	76.029898	995.064646	585.479750	56.712110	1088.249137	624.541872	-389.189786	1147.518826	875.503593	-559.682148	1069.958812	909.904308	-568.417033	1030.585132	885.322559	-623.344054	1043.054692	906.232911	-751.894681	992.544108	874.825255	-759.418451	1028.588406	810.770645	-732.833434	760.775571	745.112313	-802.192152	767.349758	755.368097	-739.008662	690.343158	775.921826	-544.999105	787.367128	674.190080	-698.138731	929.516145	596.531170	-699.772460	912.642584	558.416093	-709.057738	889.194575	611.088448	-558.466843	702.069450	290.164718	-528.532248	627.549595	262.335557	-485.910789	619.444297	279.623634	-559.768780	579.033370	241.654091	-607.691452	296.883934	152.204066	-666.386098	321.295718	92.733999	-645.277883	287.247607	110.709089	-698.119333	219.270335	105.996803	-823.516990	153.754452	28.120652	-919.690762	138.748668	38.625313	-725.433821	46.521036	84.351802	-715.176549	56.034957	38.522699	-511.871731	599.947796	740.037474	-453.575221	596.548266	768.199025	-435.736989	625.707914	776.959204	-392.839694	537.106846	750.434588	-294.227736	492.691158	748.889730	-142.531616	351.336830	666.413641	-181.130299	266.099885	614.972883	-136.028202	275.594327	627.631320	-92.560255	260.988700	594.543323	-110.455008	165.038536	536.208441	-107.225354	150.235659	439.432154	50.675150	181.457335	599.011852	25.716849	159.032647	620.500680	-26.367136	108.941060	618.630127	
